# xmcd
#
# Track frame offsets:
#	150
#	17210
#	29133
#	43692
#	55993
#	75153
#	85616
#
# Disc length: 1380 seconds
#
# Revision: 1
# Processed by: cddbd v1.5.2PL0 Copyright (c) Steve Scherf et al.
# Submitted via: audiograbber 1.83.01
#
DISCID=4c056207
DTITLE=Matt Hayden - Matt Hayden Minor
DYEAR=1999
DGENRE=Country
TTITLE0=I Don´t Buy Your Crying
TTITLE1=If I Had To Do It Over Again
TTITLE2=Go Ahead And Go
TTITLE3=Mid Lane Train
TTITLE4=She Don´t Mind
TTITLE5=I´ve Come Clean
TTITLE6=Keep On
EXTD=
EXTT0=
EXTT1=
EXTT2=
EXTT3=
EXTT4=
EXTT5=
EXTT6=
PLAYORDER=
